<svg width="1080" height="1080" viewBox="0 0 1080 1080" fill="none" xmlns="http://www.w3.org/2000/svg">
<rect width="1080" height="1080" rx="540" fill="url(#paint0_linear)"/>
<g opacity="0.7">
<path d="M930.774 408.619C929.966 408.619 929.177 408.694 928.407 408.807L882.494 354.362C883.399 352.388 883.899 350.226 883.899 347.914C883.899 339.153 876.642 332.065 867.671 332.065C862.089 332.065 857.16 334.829 854.234 339.021L689.989 306.704C690.008 306.479 690.027 306.253 690.027 306.009C690.027 297.248 682.77 290.16 673.799 290.16C670.623 290.16 667.677 291.063 665.175 292.604L598.144 217.141C599.646 214.735 600.512 211.933 600.512 208.925C600.512 200.165 593.255 193.077 584.284 193.077C575.313 193.077 568.056 200.165 568.056 208.925C568.056 209.677 568.133 210.411 568.229 211.144L481.852 255.756C478.868 252.41 474.498 250.285 469.608 250.285C466.779 250.285 464.122 251 461.812 252.241L425.12 195.277C426.718 192.814 427.662 189.919 427.662 186.779C427.662 178.018 420.404 170.931 411.433 170.931C402.463 170.931 395.205 178.018 395.205 186.779C395.205 188.039 395.378 189.261 395.648 190.445L292.427 259.967C289.539 257.392 285.708 255.813 281.492 255.813C274.966 255.813 269.364 259.591 266.785 265.006L229.227 255.173C228.938 246.657 221.816 239.833 213.018 239.833C204.047 239.833 196.79 246.92 196.79 255.681C196.79 264.216 203.701 271.153 212.344 271.492L221.142 305.125C215.309 307.531 211.228 313.171 211.228 319.733C211.228 323.662 212.691 327.234 215.116 329.997L144.756 415.293C143.889 415.142 142.985 415.067 142.08 415.067C133.109 415.067 125.852 422.155 125.852 430.916C125.852 439.676 133.109 446.764 142.08 446.764C143.986 446.764 145.814 446.426 147.508 445.843L209.649 505.965C209.091 507.563 208.764 509.293 208.764 511.079C208.764 519.84 216.021 526.927 224.992 526.927C233.27 526.927 240.065 520.892 241.085 513.072L306.884 493.99C309.271 499.836 315.104 503.972 321.957 503.972C324.132 503.972 326.211 503.54 328.098 502.788L446.566 714.213C442.446 717.089 439.751 721.789 439.751 727.109C439.751 735.87 447.008 742.958 455.979 742.958C459.617 742.958 462.967 741.773 465.681 739.799L536.331 805.317C534.233 807.987 532.981 811.315 532.981 814.943C532.981 818.308 534.059 821.41 535.888 823.967L473.69 881.156C471.11 879.465 468.011 878.487 464.68 878.487C455.71 878.487 448.452 885.575 448.452 894.335C448.452 903.096 455.71 910.184 464.68 910.184C467.972 910.184 471.014 909.225 473.574 907.589L550.307 974.104C549.575 975.908 549.152 977.882 549.152 979.95C549.152 988.711 556.409 995.799 565.38 995.799C574.351 995.799 581.608 988.711 581.608 979.95C581.608 975.57 579.779 971.584 576.834 968.727L606.326 920.148C607.847 920.599 609.444 920.843 611.119 920.843C620.09 920.843 627.347 913.756 627.347 904.995C627.347 900.539 625.461 896.535 622.439 893.659L698.151 777.851C700.172 778.734 702.405 779.242 704.754 779.242C713.725 779.242 720.982 772.154 720.982 763.393C720.982 762.867 720.944 762.359 720.905 761.833L773.825 749.5C776.751 752.32 780.774 754.05 785.202 754.05C794.173 754.05 801.43 746.962 801.43 738.201C801.43 733.633 799.428 729.516 796.271 726.639L796.733 726.602L837.698 571.314C837.929 571.333 838.179 571.352 838.41 571.352C847.381 571.352 854.639 564.264 854.639 555.503C854.639 551.254 852.906 547.4 850.115 544.562L927.521 440.015C928.599 440.24 929.696 440.353 930.851 440.353C939.822 440.353 947.08 433.266 947.08 424.505C947.003 415.706 939.745 408.619 930.774 408.619ZM867.652 337.63C873.466 337.63 878.182 342.236 878.182 347.914C878.182 353.591 873.466 358.197 867.652 358.197C861.838 358.197 857.122 353.591 857.122 347.914C857.122 342.236 861.838 337.63 867.652 337.63ZM865.65 363.631L838.353 539.617C838.353 539.617 838.353 539.617 838.333 539.617C832.712 539.617 827.765 542.418 824.839 546.648L494.576 395.816C495 394.425 495.25 392.958 495.25 391.454L851.597 350.095C852.598 357.182 858.373 362.766 865.65 363.631ZM704.696 747.507C697.65 747.507 691.663 751.907 689.43 758.035L472.169 726.827C472.15 725.511 471.957 724.252 471.63 723.03L824.896 564.339C825.744 565.561 826.764 566.67 827.919 567.61L710.664 748.617C708.797 747.902 706.794 747.507 704.696 747.507ZM595.122 901.968L480.832 893.696C480.697 890.237 479.446 887.06 477.386 884.503L539.372 827.52C542.106 829.551 545.494 830.754 549.171 830.754C551.712 830.754 554.099 830.171 556.236 829.156L600.377 893.019C597.702 895.313 595.815 898.434 595.122 901.968ZM549.171 825.208C543.357 825.208 538.641 820.602 538.641 814.924C538.641 809.247 543.357 804.641 549.171 804.641C554.985 804.641 559.701 809.247 559.701 814.924C559.701 820.602 554.985 825.208 549.171 825.208ZM549.171 799.076C545.783 799.076 542.626 800.091 540.027 801.839L469.243 736.19C470.186 734.874 470.956 733.407 471.457 731.828L688.487 763.017C688.487 763.13 688.468 763.262 688.468 763.375C688.468 764.258 688.564 765.104 688.699 765.95L563.647 807.799C560.952 802.61 555.485 799.076 549.171 799.076ZM468.511 391.304C468.511 385.626 473.228 381.021 479.041 381.021C484.855 381.021 489.571 385.626 489.571 391.304C489.571 396.982 484.855 401.588 479.041 401.588C473.228 401.588 468.511 397 468.511 391.304ZM480.466 407.077C485.567 406.645 489.995 403.919 492.651 399.933L492.767 400.554L822.721 551.254C822.336 552.589 822.124 553.999 822.124 555.466C822.124 556.951 822.355 558.38 822.74 559.733L469.512 718.386C467.337 715.153 463.987 712.765 460.06 711.75L480.466 407.077ZM673.78 295.744C679.593 295.744 684.31 300.35 684.31 306.027C684.31 311.705 679.593 316.311 673.78 316.311C667.966 316.311 663.25 311.705 663.25 306.027C663.25 300.35 667.966 295.744 673.78 295.744ZM584.265 198.642C590.078 198.642 594.795 203.248 594.795 208.925C594.795 214.603 590.078 219.209 584.265 219.209C578.451 219.209 573.735 214.603 573.735 208.925C573.735 203.248 578.451 198.642 584.265 198.642ZM569.75 215.994C572.406 221.202 577.893 224.793 584.265 224.793C588.25 224.793 591.907 223.383 594.737 221.051L661.267 295.951C660.073 297.361 659.149 298.996 658.495 300.745L485.76 267.093C485.779 266.773 485.817 266.472 485.817 266.153C485.817 263.972 485.375 261.904 484.547 260.005L569.75 215.994ZM484.643 272.018L657.571 305.708C657.571 305.821 657.552 305.915 657.552 306.027C657.552 314.788 664.809 321.876 673.78 321.876C680.71 321.876 686.601 317.627 688.93 311.649L852.021 343.74C851.867 344.304 851.751 344.868 851.655 345.451L851.327 345.15L494.538 386.548C492.594 380.475 486.972 375.982 480.235 375.512L471.38 281.888C477.424 281.249 482.468 277.339 484.643 272.018ZM469.589 255.85C475.403 255.85 480.119 260.456 480.119 266.134C480.119 271.811 475.403 276.417 469.589 276.417C463.776 276.417 459.059 271.811 459.059 266.134C459.059 260.456 463.776 255.85 469.589 255.85ZM466.163 281.625L475.076 375.982C471.957 376.753 469.185 378.389 467.087 380.645L296.354 277.94C296.95 276.605 297.355 275.177 297.547 273.673L453.631 269.048C454.824 275.327 459.81 280.29 466.163 281.625ZM411.414 176.495C417.228 176.495 421.944 181.101 421.944 186.779C421.944 192.457 417.228 197.063 411.414 197.063C405.6 197.063 400.884 192.457 400.884 186.779C400.884 181.101 405.6 176.495 411.414 176.495ZM397.573 194.995C400.422 199.563 405.562 202.627 411.433 202.627C415.245 202.627 418.749 201.33 421.521 199.187L457.712 255.38C455.498 257.711 453.996 260.682 453.534 263.991L297.412 268.634C297.066 266.886 296.411 265.231 295.526 263.746L397.573 194.995ZM281.473 261.359C287.287 261.359 292.003 265.965 292.003 271.642C292.003 277.32 287.287 281.926 281.473 281.926C275.659 281.926 270.943 277.32 270.943 271.642C270.943 265.965 275.659 261.359 281.473 261.359ZM271.232 283.919C274.023 286.156 277.604 287.491 281.492 287.491C286.305 287.491 290.617 285.441 293.582 282.189L462.736 383.935L243.607 321.124C243.646 320.654 243.684 320.184 243.684 319.714C243.684 316.386 242.625 313.284 240.835 310.746L271.232 283.919ZM202.469 255.662C202.469 249.985 207.185 245.379 212.999 245.379C218.812 245.379 223.529 249.985 223.529 255.662C223.529 261.34 218.812 265.946 212.999 265.946C207.185 265.946 202.469 261.359 202.469 255.662ZM217.484 270.89C222.797 269.405 226.975 265.363 228.553 260.212L265.36 269.856C265.283 270.439 265.245 271.041 265.245 271.661C265.245 274.801 266.188 277.715 267.805 280.159L237.235 307.118C234.502 305.087 231.114 303.884 227.437 303.884C226.994 303.884 226.551 303.922 226.108 303.941L217.484 270.89ZM227.437 309.43C233.25 309.43 237.967 314.036 237.967 319.714C237.967 325.391 233.25 329.997 227.437 329.997C221.623 329.997 216.907 325.391 216.907 319.714C216.907 314.036 221.623 309.43 227.437 309.43ZM219.294 333.419C221.7 334.791 224.472 335.581 227.437 335.581C234.001 335.581 239.642 331.765 242.183 326.313L462.909 389.575C462.89 389.8 462.871 390.026 462.852 390.251L157.345 425.652C156.056 422.08 153.495 419.09 150.184 417.21L219.294 333.419ZM142.061 441.199C136.247 441.199 131.53 436.593 131.53 430.916C131.53 425.238 136.247 420.632 142.061 420.632C147.874 420.632 152.591 425.238 152.591 430.916C152.591 436.593 147.874 441.199 142.061 441.199ZM224.973 521.362C219.159 521.362 214.443 516.756 214.443 511.079C214.443 505.401 219.159 500.795 224.973 500.795C230.786 500.795 235.503 505.401 235.503 511.079C235.503 516.756 230.786 521.362 224.973 521.362ZM305.709 488.782L240.797 507.62C239.18 500.532 232.711 495.23 224.973 495.23C219.871 495.23 215.328 497.524 212.364 501.115L152.417 443.117C153.63 442.139 154.67 440.992 155.555 439.733L305.998 485.135C305.806 486.112 305.69 487.109 305.69 488.143C305.671 488.35 305.709 488.556 305.709 488.782ZM307.904 480.134L157.769 434.826C158.096 433.566 158.289 432.269 158.289 430.897L463.429 395.515C463.564 395.966 463.718 396.418 463.872 396.85L334.008 477.558C331.043 474.306 326.731 472.257 321.918 472.257C315.931 472.276 310.715 475.434 307.904 480.134ZM321.899 498.408C316.085 498.408 311.369 493.802 311.369 488.124C311.369 482.446 316.085 477.84 321.899 477.84C327.713 477.84 332.429 482.446 332.429 488.124C332.429 493.802 327.732 498.408 321.899 498.408ZM332.468 500.137C335.933 497.223 338.127 492.937 338.127 488.124C338.127 485.849 337.627 483.687 336.741 481.732L466.355 401.174C468.588 403.9 471.707 405.893 475.307 406.739L454.901 711.317C453.611 711.393 452.36 711.599 451.166 711.957L332.468 500.137ZM455.941 737.374C450.127 737.374 445.411 732.768 445.411 727.091C445.411 721.413 450.127 716.807 455.941 716.807C461.754 716.807 466.471 721.413 466.471 727.091C466.471 732.768 461.754 737.374 455.941 737.374ZM464.623 904.581C458.809 904.581 454.093 899.975 454.093 894.298C454.093 888.62 458.809 884.014 464.623 884.014C470.436 884.014 475.153 888.62 475.153 894.298C475.153 899.975 470.436 904.581 464.623 904.581ZM565.322 990.196C559.509 990.196 554.792 985.59 554.792 979.913C554.792 974.235 559.509 969.629 565.322 969.629C571.136 969.629 575.852 974.235 575.852 979.913C575.852 985.59 571.136 990.196 565.322 990.196ZM572.56 965.738C570.385 964.666 567.921 964.064 565.322 964.064C560.356 964.064 555.928 966.245 552.944 969.667L477.328 904.13C478.618 902.532 479.6 900.69 480.196 898.697L594.949 906.988C595.546 911.462 598.029 915.354 601.609 917.854L572.56 965.738ZM611.042 915.241C605.229 915.241 600.512 910.635 600.512 904.957C600.512 899.28 605.229 894.674 611.042 894.674C616.856 894.674 621.572 899.28 621.572 904.957C621.572 910.635 616.875 915.241 611.042 915.241ZM618.126 890.707C615.99 889.692 613.583 889.109 611.042 889.109C608.79 889.109 606.653 889.56 604.709 890.369L560.433 826.317C563.493 823.441 565.399 819.399 565.399 814.924C565.399 814.078 565.303 813.251 565.187 812.443L690.258 770.594C691.144 772.286 692.337 773.771 693.743 775.049L618.126 890.707ZM704.696 773.639C698.882 773.639 694.166 769.033 694.166 763.356C694.166 757.678 698.882 753.072 704.696 753.072C710.51 753.072 715.226 757.678 715.226 763.356C715.226 769.033 710.51 773.639 704.696 773.639ZM785.125 748.466C779.311 748.466 774.595 743.86 774.595 738.183C774.595 732.505 779.311 727.899 785.125 727.899C790.939 727.899 795.655 732.505 795.655 738.183C795.655 743.86 790.939 748.466 785.125 748.466ZM792.036 723.838C789.938 722.879 787.608 722.315 785.125 722.315C776.154 722.315 768.897 729.403 768.897 738.164C768.897 740.627 769.493 742.958 770.533 745.045L719.519 756.926C718.499 754.689 716.978 752.734 715.091 751.192L832.346 570.186C832.404 570.205 832.481 570.224 832.539 570.261L792.036 723.838ZM838.333 565.768C832.52 565.768 827.803 561.162 827.803 555.484C827.803 549.807 832.52 545.201 838.333 545.201C844.147 545.201 848.863 549.807 848.863 555.484C848.863 561.162 844.166 565.768 838.333 565.768ZM845.918 541.478C845.129 541.065 844.282 540.708 843.416 540.426L870.867 363.461C874.255 362.803 877.239 361.093 879.491 358.724L923.132 410.461C918.011 413.131 914.527 418.395 914.527 424.448C914.527 430.239 917.723 435.296 922.458 438.06L845.918 541.478ZM930.774 434.751C924.961 434.751 920.244 430.145 920.244 424.467C920.244 418.79 924.961 414.184 930.774 414.184C936.588 414.184 941.305 418.79 941.305 424.467C941.305 430.145 936.588 434.751 930.774 434.751Z" fill="white"/>
</g>
<defs>
<linearGradient id="paint0_linear" x1="540" y1="0" x2="540" y2="1080" gradientUnits="userSpaceOnUse">
<stop stop-color="#64C4D2"/>
<stop offset="1" stop-color="#08B4CD"/>
</linearGradient>
</defs>
</svg>
