<?xml version="1.0" encoding="UTF-8" standalone="yes"?>
<!DOCTYPE svg PUBLIC "-//W3C//DTD SVG 1.1//EN" "http://www.w3.org/Graphics/SVG/1.1/DTD/svg11.dtd">

<svg width="300" height="100" viewBox="0 0 300 100" xmlns="http://www.w3.org/2000/svg" xmlns:xlink="http://www.w3.org/1999/xlink" version="1.1" baseProfile="full">
    <g transform="scale(1,-1) translate(0,-100)">
        <path d="M 1.112942 36.016046 L 1.112942 43.300255 L 30.966258 43.300255 L 30.966258 36.016046 L 20.219065 36.016046 L 20.219065 2.699745 L 11.979549 2.699745 L 11.979549 36.016046 Z M 36.160736 2.699745 L 36.160736 43.300255 L 62.431654 43.300255 L 62.431654 36.135459 L 44.400251 36.135459 L 44.400251 26.642105 L 58.849256 26.642105 L 58.849256 19.596722 L 44.400251 19.596722 L 44.400251 9.864541 L 62.431654 9.864541 L 62.431654 2.699745 Z M 94.971769 3.356518 Q 88.642866 1.983265 83.567802 1.983265 Q 78.492738 1.983265 75.447700 3.237105 Q 72.402662 4.490944 70.671169 7.237449 Q 68.939677 9.983954 68.282904 13.685765 Q 67.626131 17.387577 67.626131 23.000000 Q 67.626131 34.762207 70.939849 39.389471 Q 74.253567 44.016735 83.149856 44.016735 Q 88.284626 44.016735 95.031476 42.404656 L 94.792649 35.836926 Q 88.881692 36.732526 84.970908 36.732526 Q 81.060123 36.732526 79.388338 35.687659 Q 77.716552 34.642793 76.910512 31.717168 Q 76.104473 28.791543 76.104473 21.746161 Q 76.104473 14.700778 77.746405 11.984126 Q 79.388338 9.267474 84.314135 9.267474 Q 89.239932 9.267474 94.792649 10.103367 Z M 114.137598 36.851939 Q 107.629575 36.851939 107.629575 32.553061 Q 107.629575 30.642449 109.241654 29.627436 Q 110.853733 28.612423 116.794543 26.701811 Q 122.735353 24.791199 125.123619 22.373080 Q 127.511884 19.954962 127.511884 14.939605 Q 127.511884 8.550995 123.630953 5.267130 Q 119.750022 1.983265 113.480825 1.983265 Q 108.823708 1.983265 102.076858 3.416224 L 99.927419 3.834171 L 100.763312 10.222781 Q 108.764001 9.148061 113.003172 9.148061 Q 119.332075 9.148061 119.332075 14.402245 Q 119.332075 16.312857 117.869263 17.387577 Q 116.406450 18.462296 112.047866 19.716135 Q 105.121897 21.686454 102.285831 24.403106 Q 99.449766 27.119758 99.449766 31.955995 Q 99.449766 38.046071 103.151578 41.031403 Q 106.853389 44.016735 113.301705 44.016735 Q 117.719996 44.016735 124.526552 42.822602 L 126.675991 42.404656 L 126.019218 35.896633 Q 117.600583 36.851939 114.137598 36.851939 Z" transform="scale(1.000000,1.000000) translate(0.000000,27.000000)" fill="#ffffff" opacity="1.000000"></path>
        <path d="M 10.565398 6.355536 Q 8.351949 5.875259 6.577013 5.875259 Q 4.802077 5.875259 3.737116 6.313773 Q 2.672154 6.752286 2.066588 7.712840 Q 1.461022 8.673393 1.231324 9.968053 Q 1.001626 11.262712 1.001626 13.225582 Q 1.001626 17.339257 2.160555 18.957581 Q 3.319484 20.575904 6.430842 20.575904 Q 8.226659 20.575904 10.586280 20.012101 L 10.502754 17.715126 Q 8.435475 18.028350 7.067731 18.028350 Q 5.699986 18.028350 5.115301 17.662922 Q 4.530617 17.297494 4.248715 16.274295 Q 3.966813 15.251097 3.966813 12.787068 Q 3.966813 10.323040 4.541057 9.372927 Q 5.115301 8.422814 6.838033 8.422814 Q 8.560765 8.422814 10.502754 8.715157 Z M 13.217361 15.376387 Q 14.324086 16.817217 16.913404 16.817217 Q 19.502723 16.817217 20.609447 15.386827 Q 21.716172 13.956438 21.716172 11.367120 Q 21.716172 5.875259 16.913404 5.875259 Q 12.110637 5.875259 12.110637 11.367120 Q 12.110637 13.956438 13.217361 15.376387 Z M 15.368166 9.007499 Q 15.806680 8.255762 16.913404 8.255762 Q 18.020129 8.255762 18.448202 9.007499 Q 18.876275 9.759237 18.876275 11.367120 Q 18.876275 12.975003 18.448202 13.705859 Q 18.020129 14.436715 16.913404 14.436715 Q 15.806680 14.436715 15.378607 13.705859 Q 14.950534 12.975003 14.950534 11.367120 Q 14.950534 9.759237 15.368166 9.007499 Z M 26.560703 6.125838 L 23.762569 6.125838 L 23.762569 16.566638 L 26.539821 16.566638 L 26.539821 15.981953 Q 27.980651 16.817217 29.003850 16.817217 Q 30.695259 16.817217 31.614049 15.835782 Q 33.535157 16.817217 35.122158 16.817217 Q 37.189436 16.817217 37.993378 15.616525 Q 38.797319 14.415833 38.797319 11.784752 L 38.797319 6.125838 L 35.999185 6.125838 L 35.999185 11.701225 Q 35.999185 13.037648 35.706843 13.674536 Q 35.414500 14.311425 34.537473 14.311425 Q 33.869262 14.311425 32.908709 14.019083 L 32.595485 13.914675 Q 32.679011 12.348555 32.679011 11.534172 L 32.679011 6.125838 L 29.880877 6.125838 L 29.880877 11.492409 Q 29.880877 13.037648 29.609416 13.674536 Q 29.337955 14.311425 28.419165 14.311425 Q 27.604783 14.311425 26.811282 14.019083 L 26.560703 13.935556 Z M 41.282229 1.740703 L 41.282229 16.566638 L 44.059482 16.566638 L 44.059482 16.002834 Q 45.416786 16.817217 46.439984 16.817217 Q 48.549026 16.817217 49.551342 15.553880 Q 50.553659 14.290543 50.553659 11.262712 Q 50.553659 8.234880 49.446934 7.055070 Q 48.340210 5.875259 45.813536 5.875259 Q 45.124444 5.875259 44.330943 6.000549 L 44.080364 6.042312 L 44.080364 1.740703 Z M 45.897063 14.311425 Q 45.124444 14.311425 44.330943 13.998201 L 44.080364 13.893793 L 44.080364 8.422814 Q 45.020036 8.297525 45.604720 8.297525 Q 46.815853 8.297525 47.264807 9.007499 Q 47.713762 9.717473 47.713762 11.429764 Q 47.713762 14.311425 45.897063 14.311425 Z M 58.801890 16.566638 L 61.600025 16.566638 L 61.600025 6.125838 L 58.822772 6.125838 L 58.822772 6.710523 Q 57.319297 5.875259 56.212572 5.875259 Q 54.040886 5.875259 53.289148 7.075951 Q 52.537411 8.276643 52.537411 11.095659 L 52.537411 16.566638 L 55.335545 16.566638 L 55.335545 11.053896 Q 55.335545 9.508657 55.586124 8.944854 Q 55.836703 8.381051 56.797257 8.381051 Q 57.716047 8.381051 58.530430 8.673393 L 58.801890 8.756920 Z M 69.973545 14.186135 L 67.405109 14.186135 L 67.405109 9.905408 Q 67.405109 9.278960 67.436431 9.017940 Q 67.467754 8.756920 67.666129 8.568985 Q 67.864504 8.381051 68.282136 8.381051 L 69.869137 8.422814 L 69.994427 6.188483 Q 68.595360 5.875259 67.864504 5.875259 Q 65.985160 5.875259 65.296067 6.720964 Q 64.606975 7.566669 64.606975 9.842763 L 64.606975 14.186135 L 63.374960 14.186135 L 63.374960 16.566638 L 64.606975 16.566638 L 64.606975 19.469180 L 67.405109 19.469180 L 67.405109 16.566638 L 69.973545 16.566638 Z M 75.736867 18.153639 L 75.883038 15.480795 Q 75.883038 14.165254 75.454965 13.601451 Q 75.026892 13.037648 73.544299 12.682660 Q 75.006011 12.327673 75.454965 11.690784 Q 75.903919 11.053896 75.903919 9.717473 L 75.757748 7.274326 Q 75.757748 6.564352 76.060531 6.167602 Q 76.363315 5.770851 77.240342 5.708207 L 77.240342 3.327704 Q 74.922484 3.411231 73.972372 4.225613 Q 73.022259 5.039995 73.022259 6.919339 L 73.168430 9.446013 Q 73.168430 10.970369 70.829691 11.575936 L 70.829691 13.747622 Q 73.168430 14.290543 73.168430 15.710492 L 73.022259 18.362455 Q 73.022259 20.346207 73.972372 21.139708 Q 74.922484 21.933208 77.282105 22.016735 L 77.282105 19.636233 Q 76.384196 19.552706 76.060531 19.197719 Q 75.736867 18.842732 75.736867 18.153639 Z M 87.326154 13.309108 L 87.326154 8.965736 Q 87.367917 8.464578 87.493206 8.266202 Q 87.618496 8.067827 88.015246 7.984301 L 87.931720 5.875259 Q 86.866758 5.875259 86.229870 6.021431 Q 85.592981 6.167602 84.945651 6.606115 Q 83.442176 5.875259 81.876056 5.875259 Q 78.639409 5.875259 78.639409 9.299841 Q 78.639409 10.970369 79.537317 11.669903 Q 80.435226 12.369436 82.293688 12.494726 L 84.528019 12.661779 L 84.528019 13.309108 Q 84.528019 13.956438 84.235677 14.196576 Q 83.943335 14.436715 83.296005 14.436715 L 79.370265 14.269662 L 79.286738 16.211650 Q 81.521069 16.817217 83.536144 16.817217 Q 85.551218 16.817217 86.438686 15.981953 Q 87.326154 15.146689 87.326154 13.309108 Z M 82.627794 10.552737 Q 81.458425 10.448329 81.458425 9.299841 Q 81.458425 8.151354 82.481623 8.151354 Q 83.275124 8.151354 84.214795 8.401933 L 84.528019 8.485459 L 84.528019 10.719790 Z M 94.029147 5.353219 Q 95.365569 5.332338 95.981576 4.956469 Q 96.597583 4.580600 96.597583 3.432112 Q 96.597583 2.283624 95.992017 1.688499 Q 95.386451 1.093373 94.279726 1.093373 Q 93.381817 1.093373 92.630080 1.260426 L 92.337737 1.323071 L 92.421264 2.951836 Q 93.068593 2.930954 93.423580 2.930954 Q 94.217081 2.930954 94.217081 3.473876 Q 94.217081 3.933271 93.423580 3.933271 L 92.922422 3.933271 L 92.922422 5.937904 Q 91.105723 6.167602 90.301781 7.483142 Q 89.497840 8.798683 89.497840 11.523732 Q 89.497840 14.248780 90.541920 15.532999 Q 91.586000 16.817217 93.903857 16.817217 Q 94.989700 16.817217 96.681110 16.483111 L 97.244913 16.357822 L 97.161386 14.144372 Q 95.511740 14.311425 94.718239 14.311425 Q 93.277409 14.311425 92.807573 13.695418 Q 92.337737 13.079411 92.337737 11.367120 Q 92.337737 9.654829 92.807573 9.017940 Q 93.277409 8.381051 94.739121 8.381051 L 97.161386 8.548104 L 97.244913 6.313773 Q 95.219398 5.917023 94.029147 5.875259 Z M 107.309843 13.309108 L 107.309843 8.965736 Q 107.351606 8.464578 107.476896 8.266202 Q 107.602186 8.067827 107.998936 7.984301 L 107.915409 5.875259 Q 106.850448 5.875259 106.213559 6.021431 Q 105.576670 6.167602 104.929341 6.606115 Q 103.425866 5.875259 101.859746 5.875259 Q 98.623098 5.875259 98.623098 9.299841 Q 98.623098 10.970369 99.521007 11.669903 Q 100.418916 12.369436 102.277378 12.494726 L 104.511709 12.661779 L 104.511709 13.309108 Q 104.511709 13.956438 104.219367 14.196576 Q 103.927024 14.436715 103.279695 14.436715 L 99.353954 14.269662 L 99.270428 16.211650 Q 101.504759 16.817217 103.519833 16.817217 Q 105.534907 16.817217 106.422375 15.981953 Q 107.309843 15.146689 107.309843 13.309108 Z M 102.611484 10.552737 Q 101.442114 10.448329 101.442114 9.299841 Q 101.442114 8.151354 102.465312 8.151354 Q 103.258813 8.151354 104.198485 8.401933 L 104.511709 8.485459 L 104.511709 10.719790 Z M 105.910776 19.260364 Q 105.701960 19.051548 105.117275 18.696561 Q 104.532591 18.341573 104.062755 18.341573 Q 103.592919 18.341573 102.632365 18.717442 Q 101.671812 19.093311 101.400351 19.093311 Q 100.794784 19.093311 100.022165 18.613034 L 99.750705 18.445981 L 99.145138 20.012101 Q 99.562770 20.492378 100.199659 20.878688 Q 100.836548 21.264997 101.306384 21.264997 Q 101.776220 21.264997 102.747214 20.889128 Q 103.718208 20.513260 103.968787 20.513260 Q 104.469946 20.513260 105.346973 21.035300 L 105.639315 21.223234 L 106.244882 19.636233 Q 106.119592 19.490061 105.910776 19.260364 Z M 110.546491 15.376387 Q 111.653216 16.817217 114.242534 16.817217 Q 116.831852 16.817217 117.938577 15.386827 Q 119.045301 13.956438 119.045301 11.367120 Q 119.045301 5.875259 114.242534 5.875259 Q 109.439766 5.875259 109.439766 11.367120 Q 109.439766 13.956438 110.546491 15.376387 Z M 112.697295 9.007499 Q 113.135809 8.255762 114.242534 8.255762 Q 115.349258 8.255762 115.777331 9.007499 Q 116.205404 9.759237 116.205404 11.367120 Q 116.205404 12.975003 115.777331 13.705859 Q 115.349258 14.436715 114.242534 14.436715 Q 113.135809 14.436715 112.707736 13.705859 Q 112.279664 12.975003 112.279664 11.367120 Q 112.279664 9.759237 112.697295 9.007499 Z" transform="scale(1.000000,1.000000) translate(161.000000,49.000000)" fill="#ffffff" opacity="1.000000"></path>
        <path d="M 9.499761 12.033076 Q 6.910443 12.367182 5.876804 12.367182 Q 4.843165 12.367182 4.540382 12.179248 Q 4.237599 11.991313 4.237599 11.584122 Q 4.237599 11.176931 4.644790 11.020319 Q 5.051981 10.863707 6.732950 10.560924 Q 8.413918 10.258141 9.123893 9.569048 Q 9.833867 8.879955 9.833867 7.334717 Q 9.833867 3.951898 5.636666 3.951898 Q 4.258480 3.951898 2.295610 4.327767 L 1.627399 4.453056 L 1.710925 6.791795 Q 4.300243 6.457690 5.313001 6.457690 Q 6.325758 6.457690 6.691186 6.656065 Q 7.056614 6.854440 7.056614 7.251190 Q 7.056614 7.647941 6.670305 7.835875 Q 6.283995 8.023810 4.665671 8.295270 Q 3.047348 8.566731 2.253847 9.214061 Q 1.460346 9.861390 1.460346 11.521477 Q 1.460346 13.181564 2.587952 14.027269 Q 3.715559 14.872974 5.490494 14.872974 Q 6.722509 14.872974 8.852432 14.476223 L 9.541525 14.350934 Z M 12.423185 13.453025 Q 13.529910 14.893855 16.119228 14.893855 Q 18.708546 14.893855 19.815271 13.463466 Q 20.921996 12.033076 20.921996 9.443758 Q 20.921996 3.951898 16.119228 3.951898 Q 11.316460 3.951898 11.316460 9.443758 Q 11.316460 12.033076 12.423185 13.453025 Z M 14.573990 7.084138 Q 15.012503 6.332400 16.119228 6.332400 Q 17.225953 6.332400 17.654025 7.084138 Q 18.082098 7.835875 18.082098 9.443758 Q 18.082098 11.051641 17.654025 11.782497 Q 17.225953 12.513353 16.119228 12.513353 Q 15.012503 12.513353 14.584431 11.782497 Q 14.156358 11.051641 14.156358 9.443758 Q 14.156358 7.835875 14.573990 7.084138 Z M 26.873251 14.893855 Q 27.959094 14.893855 29.650504 14.559750 L 30.214307 14.434460 L 30.130780 12.221011 Q 28.481134 12.388064 27.687633 12.388064 Q 26.246803 12.388064 25.776967 11.772056 Q 25.307131 11.156049 25.307131 9.443758 Q 25.307131 7.731467 25.776967 7.094578 Q 26.246803 6.457690 27.708515 6.457690 L 30.130780 6.624742 L 30.214307 4.390411 Q 27.979976 3.951898 26.810606 3.951898 Q 24.492749 3.951898 23.479991 5.256998 Q 22.467234 6.562098 22.467234 9.443758 Q 22.467234 12.325419 23.511314 13.609637 Q 24.555394 14.893855 26.873251 14.893855 Z M 32.281585 4.202477 L 32.281585 14.643276 L 35.079719 14.643276 L 35.079719 4.202477 Z M 32.281585 15.979698 L 32.281585 18.819596 L 35.079719 18.819596 L 35.079719 15.979698 Z M 45.666690 11.385747 L 45.666690 7.042374 Q 45.708453 6.541216 45.833742 6.342841 Q 45.959032 6.144466 46.355782 6.060939 L 46.272256 3.951898 Q 45.207294 3.951898 44.570406 4.098069 Q 43.933517 4.244240 43.286187 4.682754 Q 41.782712 3.951898 40.216592 3.951898 Q 36.979945 3.951898 36.979945 7.376480 Q 36.979945 9.047008 37.877853 9.746541 Q 38.775762 10.446075 40.634224 10.571365 L 42.868555 10.738417 L 42.868555 11.385747 Q 42.868555 12.033076 42.576213 12.273215 Q 42.283871 12.513353 41.636541 12.513353 L 37.710801 12.346300 L 37.627274 14.288289 Q 39.861605 14.893855 41.876679 14.893855 Q 43.891754 14.893855 44.779222 14.058591 Q 45.666690 13.223327 45.666690 11.385747 Z M 40.968330 8.629376 Q 39.798960 8.524968 39.798960 7.376480 Q 39.798960 6.227992 40.822159 6.227992 Q 41.615659 6.227992 42.555331 6.478571 L 42.868555 6.562098 L 42.868555 8.796429 Z M 48.464824 4.202477 L 48.464824 18.819596 L 51.262958 18.819596 L 51.262958 4.202477 Z M 54.959001 5.350965 L 54.812830 7.794112 Q 54.812830 9.130534 55.261784 9.767423 Q 55.710738 10.404312 57.172450 10.759299 Q 55.689857 11.114286 55.261784 11.678089 Q 54.833711 12.241892 54.833711 13.557433 L 54.979882 16.230278 Q 54.979882 16.919370 54.656218 17.274358 Q 54.332553 17.629345 53.434644 17.712871 L 53.434644 20.093373 Q 55.794265 20.009847 56.744377 19.216346 Q 57.694490 18.422845 57.694490 16.439094 L 57.548319 13.787131 Q 57.548319 12.367182 59.887058 11.824260 L 59.887058 9.652574 Q 57.548319 9.047008 57.548319 7.522651 L 57.694490 4.995978 Q 57.694490 3.116634 56.744377 2.302252 Q 55.794265 1.487869 53.476407 1.404343 L 53.476407 3.784845 Q 54.353434 3.847490 54.656218 4.244240 Q 54.959001 4.640991 54.959001 5.350965 Z" transform="scale(1.000000,1.000000) translate(239.000000,30.000000)" fill="#ffffff" opacity="1.000000"></path>
        <path d="M 1.255207 1.983265 L 1.255207 44.016735 L 2.255207 44.016735 L 2.255207 1.983265 L 1.255207 1.983265 Z" transform="scale(1.000000,1.000000) translate(143.000000,27.000000)" fill="#ffffff" opacity="1.000000"></path>
    </g>
</svg>